<svg xmlns="http://www.w3.org/2000/svg" viewBox="59.2,0.0,62.4,68.2" width="48px" height="48px" data-name="Alaska" data-fips="02" data-abbrev="AK"> <path d="M84.18641515965555,38.60982449585805 85.12641679415684,39.504951651177045 85.26687782268515,40.76381232849169 83.03884435333526,41.04744657804056 80.74665851829863,40.915714724220074 80.39111876822774,39.67528192828073 80.9919456888459,38.30550579029724 83.0691233538791,38.41265655172552 84.18641515965555,38.60982449585805 M69.21442538150266,17.282203820551135 70.11839228849304,18.472212551521544 69.47371267537146,19.45359734005528 68.30684433657281,19.034846634800605 67.78800896632777,17.789108638189838 67.52060095947635,16.418213339027417 69.21442538150266,17.282203820551135 M69.36259452375417,3.5246837318408093 69.73066587050687,4.676186962413292 70.70912198664178,5.240671616426616 71.18423333538176,6.775190413601901 72.16948406674989,8.266873309142522 71.8468992785073,8.39288513924162 70.45963818101797,7.901526943656581 69.94338389105638,6.509649592953579 69.837868113261,5.665843895973505 68.62820574193995,4.6817189842633535 68.51680978279265,4.205202358876921 69.36259452375417,3.5246837318408093 M119.62682521436986,21.058692860250048 119.62682634832586,21.058693441078564 115.19164221274306,29.693542254074128 107.69052317742121,44.314140797689916 109.27892059046805,45.217606940812956 110.53215063325908,46.76883885358709 111.13016569285355,48.53413503031264 111.78872873628788,51.06739536167566 114.172808085718,50.28109851560106 116.29334767070723,50.14956980601887 116.57436617377259,51.99342555480907 117.25007605443083,53.650225046649744 118.32116577129567,55.60682656093197 118.58939483859992,58.12166485392924 119.11781959764443,62.18058219178425 121.54816636736905,65.26626423339442 120.89911590275686,67.16187214370429 119.30266508556736,68.20407005352564 118.69230825830412,66.68420758681388 117.40927683810905,65.09093419115158 117.90930886040434,62.31733828043538 116.5234422954717,59.00540331962873 116.69931754995899,55.89038214197876 115.08261209286515,54.97799373066313 112.32418091732414,53.665959586526455 110.66069327711429,51.91560709638659 108.5213575525243,47.34493164884287 107.17836153871905,46.0216459936664 104.78589736554463,43.55223612177461 102.39800891234752,42.549657926901226 99.90587523580082,39.544677176029865 98.66742427313922,37.3322402973112 96.59324604445315,36.82005806464773 95.82662586170837,38.807551394134364 94.8464767759913,38.43444717269527 92.67769192426142,37.824042394608284 90.73114049548984,37.797890404245706 88.62701618806439,37.19462608072373 89.39867278939556,35.54913796409715 91.73097829117165,33.54101037731595 93.86785899838249,33.83338760117634 93.85305159587004,32.933343694913354 90.98801737726885,33.04323863974063 88.82101902696553,34.003744085186696 85.37250545503922,34.2560297695618 85.661311508854,36.26702875839238 82.91352311573246,37.055094074987025 80.47032245081769,36.911456489170554 78.34028033725923,36.53632597088407 77.12827776457688,37.36324026438324 73.69626397857346,36.81038799102046 72.29533809967438,37.60312236232703 69.6165958238482,37.230213129893556 68.69178406905391,36.18098894352068 66.67678829211269,35.68768999362411 64.40601440132664,35.21590661492262 62.4258447362909,34.94200173067502 59.18001626308015,33.3359460021257 59.29719772559771,32.720545044114445 61.95394638064783,33.06364377327497 64.09430410328956,33.603687545551004 66.84803212470035,33.6475901006594 68.98973545051109,34.93804214427109 70.56401438384819,34.541981981962 73.87268105788378,34.75221206120031 74.60185789162232,34.523678009027094 76.41343612601159,34.522257422393395 78.10041105703218,32.84742325089182 79.96926852841982,31.976614053126326 77.65800245901667,31.39500921176329 77.49433665843871,30.600886968285714 75.99138325528595,30.85178542830388 75.97986829064808,28.855118250981754 74.89122277225557,29.39980728825475 75.29435468172261,27.759278985243874 73.04554670912489,27.51622913058787 72.14573266775992,26.768858021913054 73.18951334578404,25.26103498741577 74.166497177457,24.618651692148333 73.9374238147875,23.017094457468332 71.71463087579137,21.883594296098394 71.46688522703012,19.779367197162962 71.00060835672176,18.397809753166612 72.12652706456262,17.126751053602145 71.93344234153514,15.244474843690801 73.59193738677708,14.454169822428458 75.76868719328871,14.207560525028663 77.22908036835528,13.508742242853154 78.44327511086534,14.287537783434043 79.06074706530723,15.427221028580375 81.04302664208501,15.280676971375176 81.86427121444352,16.284985187989868 83.46009377633311,16.440642050589375 84.0297856832077,15.227513399136763 83.60401401880605,14.219787464777397 85.27808047023765,14.18538741244977 84.44189586721471,13.543628155226731 82.6478775684147,12.848329704837623 81.84384576302361,12.985894384251415 81.21335007423492,11.628748018965359 79.16911545966047,10.262687891231971 77.74780179066325,8.072975016874933 77.98071281783945,6.757435083745375 77.51200150927492,4.112987098901127 80.02407285044562,4.889608302453286 83.68155946266,6.394611469270156 84.71325705293215,7.292582954946141 83.65435597664508,8.170327346248722 86.42570756522704,10.37595014410445 86.46134935721432,8.219520287304727 85.57560240233758,6.123547849785946 85.56505791224687,4.357726032306079 85.1366857538271,2.485687715535618 84.04192787882116,0.38355824308714065 85.61318820674357,0 87.7835838715571,1.8290648027193812 90.05719407206686,2.274365111140055 91.13046928656385,1.594554033070616 93.10755035587738,1.7318960656659226 94.45802493365434,2.482714909338037 97.42691405509915,3.4823447727982226 98.45488520100406,4.480321150308339 101.1129720502726,4.8971139591870525 102.70259768124625,6.668642706000674 102.99037358860161,8.19620647631042 103.82082650656604,8.211134708468196 105.89883822854466,9.808019089983524 105.51282307872955,10.215388435657013 107.27327568610768,11.872605922465869 108.7416494727822,12.526966187048421 111.13287645951476,14.911148489966841 113.61013637827533,16.640001168041398 114.50073625912049,17.516602922300866 116.51862628093124,18.182425214481007 118.26713700759181,19.96142475354193 119.62682521436986,21.058692860250048Z"></path> </svg>