<svg xmlns="http://www.w3.org/2000/svg" viewBox="212.0,157.8,24.2,18.3" width="48px" height="48px" data-name="Florida" data-fips="12" data-abbrev="FL"> <path d="M212.46964404586942,161.56235579912794 212.6374785471394,161.08679997123176 212.73008883321657,160.41505652508545 212.00375223323192,159.66344456052298 212.02675770934246,159.40516506793037 213.64284175432186,159.06505598360988 219.46297276630227,158.43234328412058 220.0013463370818,159.27769039751368 222.89345366375838,159.0767275368179 227.59380034380212,158.93762675163214 227.89015371579546,159.48486983356588 228.2156532258998,159.13437911232032 228.05265292746523,157.98188238257416 228.37908592347912,157.81859707472628 228.97870456655372,157.97747881464358 229.58869946776346,157.9469818537883 230.44910837000464,160.16484249768473 231.85632172926233,162.83657636617815 233.5248081423802,164.95718143745168 233.77411970916603,166.37398129395166 235.8060809348015,169.94219444072164 236.08486471352043,172.160743090194 236.1683350040061,173.4516251674391 235.74773837621504,175.56665529099197 234.90901875738192,176.126435342095 233.35216680892432,175.9706418599011 232.64934113419702,174.61463288145876 231.38748444122365,174.03862105623196 229.37941302623537,171.4588387188664 227.63474821368104,169.14333599342606 227.0106767932963,167.9175660789329 227.30691434462676,165.6441228517637 226.23585032733172,163.94286649613773 223.607293062637,161.47669622763075 222.41834460595916,161.11144301292396 219.6858786965567,162.96879172977538 219.14830770937994,162.86212595016212 217.57484685109137,161.46722728887832 215.6838672920317,160.8324832237563 212.46964404586942,161.56235579912794Z"></path> </svg>