<svg xmlns="http://www.w3.org/2000/svg" viewBox="216.2,144.5,14.4,15.0" width="48px" height="48px" data-name="Georgia" data-fips="13" data-abbrev="GA"> <path d="M219.46297276630227,158.43234328412058 219.27724758836294,158.05580195883735 219.04772384066393,157.651962545227 219.06291819662596,157.0965686193935 219.06535644819186,156.49961336654252 218.8404175306885,155.8893227933569 218.87475153346156,154.81085709937435 219.27011472162482,154.17082173667515 218.95572849489125,153.60271036723722 218.4343467234141,152.60505825640044 217.40284488926844,149.3579907562112 216.23142449191405,145.2803633864534 218.32463175121424,145.07284857342938 219.76516231764205,144.8648941049568 223.13528137734028,144.4531698768381 222.8767966878966,144.77099212986272 222.52764609066685,145.46233844849021 223.33571851794787,145.91797631820066 223.83558757515885,146.05606688862443 224.49061749349173,147.04086362154246 224.89954848335935,147.58598764579625 225.96696545584064,148.23878187681774 226.21625236341757,148.62538398011685 226.9481165083943,149.0717055654679 227.38745865067486,149.81599593207193 228.37214490953065,150.35219970866024 228.68698342846292,151.0812935604945 228.9082118773776,151.42318024718057 228.85053744455917,151.68227923907955 229.42506378365354,151.9652746773001 229.79691499467677,152.54382430019737 229.89223159834745,153.17646670506684 230.16755127114058,153.2588446576316 230.67405005468714,153.35242328651918 229.66124163600333,155.5258581606568 229.58869946776346,157.9469818537883 228.97870456655372,157.97747881464358 228.37908592347912,157.81859707472628 228.05265292746523,157.98188238257416 228.2156532258998,159.13437911232032 227.89015371579546,159.48486983356588 227.59380034380212,158.93762675163214 222.89345366375838,159.0767275368179 220.0013463370818,159.27769039751368 219.46297276630227,158.43234328412058Z"></path> </svg>