<svg xmlns="http://www.w3.org/2000/svg" viewBox="230.1,125.4,12.1,5.9" width="48px" height="48px" data-name="Maryland" data-fips="24" data-abbrev="MD"> <path d="M241.59954847835965,130.75992409366702 241.59955145992592,130.75991384829825 241.01600888585375,130.9408913562569 240.77370886386885,131.21119051141642 240.773708197759,131.2111957822416 239.1969648582448,130.2286290265462 238.3218833358113,127.54569511839033 238.13204370057483,129.07695643522496 239.11442439619358,131.0603149835746 237.31591249447646,130.89191651657583 237.26423152670478,130.79941590822312 237.07269449979884,130.45611318696692 236.6862018693926,130.68333557851764 236.31054595313984,130.57065904207627 236.45372702999975,129.77483190729225 236.74040362186213,129.46681000916237 236.82492716958407,129.37577758779597 236.81649887567886,129.0985725800209 237.08603633945154,128.73751319030274 236.6942647735542,128.45962179129552 236.52117795522994,128.6604675087763 236.52117524633965,128.66046506749396 235.97488370502836,128.3852852199087 235.40041007893416,128.29149654016607 235.42580493236457,128.20562781583968 235.51631474378593,127.89882112718814 235.51631157562514,127.89881962570313 235.5163131198963,127.89881438042168 235.131562418772,127.71602422541078 234.81143107288563,127.68356373246802 234.73928217290137,127.67618530456946 234.4580995897169,127.2921962739518 234.05989181526036,126.87774645503805 233.23168325859544,126.76297205154017 232.7938735395341,127.10534592236084 232.5648183171341,127.40249953787311 231.79510403868608,127.40630429675427 231.52032218491416,127.81579792500128 231.0435567301875,128.03785226727547 230.67771346714804,128.49872187934156 230.34081057972742,128.86478033092766 230.06591373385245,127.17332307284526 232.40303375717806,126.7547132982096 233.19950912565145,126.60000870066057 234.98011192003327,126.24162905470355 237.12878978267238,125.82494351182515 239.3320861966277,125.35062334682713 240.42627994972332,129.51639713610797 242.12138008588894,129.14462164756534 242.13312797694184,129.29649855043854 241.59955455255832,130.75992220172907 241.59954847835965,130.75992409366702Z"></path> </svg>