<svg xmlns="http://www.w3.org/2000/svg" viewBox="188.5,127.6,17.8,15.3" width="48px" height="48px" data-name="Missouri" data-fips="29" data-abbrev="MO"> <path d="M205.0283146988349,142.75717883149662 203.27607603023148,142.86815590697478 203.4206965323462,142.5231855364043 203.69919343401315,142.14120446716902 203.9782999143355,141.76054903505482 203.73018333094305,141.35736337498884 200.67661714777321,141.3208982976948 197.85726677476194,141.4444495288913 194.90370308846113,141.53317769961004 191.6532085808006,141.55265444592143 191.66034354856757,140.00187750851086 191.64627529343,140.00208178930316 191.6133849143233,136.39281746835698 191.58795314135486,132.775877976588 190.90565424796986,132.4650548805071 190.58041771075278,131.75924866439465 190.38149267814006,131.43967674508028 190.7355498320466,130.8105581736838 190.65709707569573,130.3218344725743 190.32462108297912,130.33241594444416 189.71456790003194,129.88731248845122 189.37984525132933,129.16776941994837 188.9826024560648,128.73757667742785 188.5543981385218,128.20490125566934 188.50284076975896,127.9264095147041 190.7737811948539,127.91256081591528 193.04030696765963,127.87027743216858 195.94766474533037,127.76650380078863 198.70667802265285,127.58596470948092 199.214524975484,128.10974511833558 199.57498397286423,128.3751824503523 199.3933583796184,129.2243407801228 199.66926216797282,130.2216618613862 200.12672243894895,130.89510260596293 200.6454723917164,131.44298648507527 201.26071345038832,131.8648108527514 201.50588897265374,132.00524904203067 201.75694507888767,132.63556825531953 201.82969379993486,133.19708799107076 202.13314024193997,133.32112697925606 202.6086618662991,133.0749382479494 203.1341090436968,133.58737523219267 203.02545637839353,134.21884075451334 202.81456146714683,134.7239387247677 202.68184829063418,135.3262715739979 203.0822766532414,135.8106282450999 203.62913897707563,136.25483215022902 203.92625229477306,136.24855573036166 204.66097923998657,136.94360282624382 204.93296334513045,137.02557578853657 205.18479620412435,137.82683186222064 205.1218309255037,138.33983227135346 205.5173084908548,139.1434407569635 205.79685210130995,139.03600290377034 206.30381661492737,139.5244403900433 206.24557125672877,139.86895315147933 206.3345247625459,140.3944595060053 205.93203642144664,140.70444746445105 205.3586836230387,141.10074572705466 205.31180635495636,141.4315592436342 205.18167561875967,141.92188229850774 205.0283146988349,142.75717883149662Z"></path> </svg>