<svg xmlns="http://www.w3.org/2000/svg" viewBox="200.5,145.9,9.4,16.5" width="48px" height="48px" data-name="Mississippi" data-fips="28" data-abbrev="MS"> <path d="M201.534028593857,153.13127897635644 201.63453817837274,152.46328194663695 201.26862064886828,151.59769281725576 201.2915829396083,150.79769991282222 201.8348481946211,149.59402988179525 202.08915785520668,148.88442305113094 202.54958596821905,148.4003715761563 202.85524503330072,148.19200580974905 203.169728220818,147.2700895489824 203.15128688035858,146.78170431426668 203.62247543286807,146.50172311448014 203.6581727527979,146.23150073347134 206.3387174045584,146.05339677073044 209.32679779922196,145.89719644721677 209.57521281741913,146.53168116529025 209.4451424150883,150.92173157580106 209.3831840091224,156.31511429283032 209.88083942818298,161.4100827522926 207.69918040435007,161.80669042474534 206.5418472996639,162.41027511498905 206.54148508602782,162.41046283164363 206.5411152826598,162.40920033281057 206.50637047608362,162.35817442563132 206.43061089764635,162.03148092021306 206.29128454459087,161.48537175154655 205.88615463782654,161.12334307996784 205.67606665921716,160.71275636602527 205.83027115918057,160.15215107433903 205.8756986350161,159.59128844639258 203.17707948507862,159.7482134311774 200.64535087571159,159.77118097717462 200.49012215182108,158.9403504656006 200.82142935119396,158.55011386333118 201.04181940148024,157.72928731826806 201.262947457484,157.01451932945758 201.78362001718745,156.46365477411197 201.8825353830042,155.823442797155 202.25560300069606,155.46034079846825 201.86172139869257,154.90252975087733 201.95604094855133,154.48101353132103 201.51377134425698,153.81103307477244 201.74357993857282,153.31294107130825 201.534028593857,153.13127897635644Z"></path> </svg>