<svg xmlns="http://www.w3.org/2000/svg" viewBox="143.0,95.0,26.9,17.1" width="48px" height="48px" data-name="Montana" data-fips="30" data-abbrev="MT"> <path d="M143.56768177783135,95.0266932407242 150.11273496828017,96.31752187947365 156.6953121080342,97.40003040498644 163.3084975926873,98.27508295927703 169.94682627219044,98.94354714087085 169.46384423337153,105.01581249522462 169.23787159940335,109.06751742193916 168.8578155708138,112.11358820675244 164.92407160957154,111.70802579637497 160.67971743907108,111.248413631692 157.02736431925425,110.7344321971903 152.40713421129647,110.06964295033578 152.14795719834606,111.7538693047015 152.08673216940844,111.86457054727302 151.85889369371313,111.64096730704571 151.70478610049184,111.13929595805378 151.46455769988802,111.0066259670619 151.02149227755874,111.60864938102085 150.46365388122044,111.62570897312798 149.16908555047252,111.19237166995775 149.05023966238826,111.50700578649695 148.30013131495673,111.25080334476061 147.78339300689845,111.63138835709368 147.52119848186538,110.69785849500535 147.32080261898776,110.16511061056542 146.8585958460456,109.99712992475291 146.76089480262112,109.72994774057734 146.7729788022324,108.8406389015434 146.4377324068006,108.35218263579667 146.36927322345,107.26238218106282 146.1791502110566,106.7574096894612 145.9159038175715,106.61324814280628 145.59115142126404,107.0305317799935 145.0590503362589,107.33327470543945 144.71092380467107,106.92722907452693 144.85376724052415,106.08161941478113 145.1630335682792,105.9224067204681 145.13599363389037,105.04065402381119 145.52788415602842,104.22201528898466 145.91914537519116,103.54412314382346 145.24135663837646,103.37853406731179 144.7516620990414,102.78748344643776 144.3275787218261,101.65011085948765 144.05634079579093,101.06721242508917 143.60252338335755,100.65104333401253 143.29576540340796,100.04322023921316 143.42015627774796,99.457642780572 143.01705398266733,98.46946613665428 143.56768177783135,95.0266932407242Z"></path> </svg>