<svg xmlns="http://www.w3.org/2000/svg" viewBox="219.7,135.9,22.7,10.3" width="48px" height="48px" data-name="North Carolina" data-fips="37" data-abbrev="NC"> <path d="M223.13528137734028,144.4531698768381 219.76516231764205,144.8648941049568 219.7376730046625,144.14924934766563 220.28246678564147,143.86724700282505 220.4238539129489,143.48430073099806 220.7536235732174,143.03017554858243 221.28676405522884,142.87123112118599 221.89731211624388,142.63427438247305 222.47169878554914,142.26359620104355 222.69649784731817,141.93221720545458 223.16929747554403,141.59516819028656 223.12159558774184,141.35484418584736 223.72875983113312,140.8084562160183 223.9861830042365,141.07136794944685 224.8792488752122,140.30057832080365 225.34753974224074,140.29857681623184 225.67327689462815,139.67780339479683 226.1916517065905,139.4516874246812 226.08995534166064,138.97946030694223 226.09359199645465,138.55075559633573 225.06944876223582,138.75560369628167 226.09359364111234,138.5507471212248 230.56671211283464,137.9791793348255 235.81052463540507,137.0470778894574 238.57981710509006,136.47110226571758 241.05651823405023,135.93863295133363 241.38313136438825,135.86648133631587 241.38313162017639,135.86648210111582 242.46561544356368,139.08691763468522 241.29436777389972,141.89409375599402 238.71810241710105,143.43962953319425 237.3181158875743,145.72482936174214 236.00100561296006,146.1923818252866 232.40885019508855,143.59937902013084 229.40834472371793,144.0675342324913 229.3529625187878,143.67904720605534 228.84073266725954,143.183150247123 228.60528600698876,143.44646575547335 228.53717528975653,143.15563181244042 227.25380558214218,143.19890039370705 224.76718610245908,143.53975131301493 223.3918780167986,144.31707655869195 223.13528137734028,144.4531698768381Z"></path> </svg>