<svg xmlns="http://www.w3.org/2000/svg" viewBox="226.0,117.6,15.5,10.0" width="48px" height="48px" data-name="Pennsylvania" data-fips="42" data-abbrev="PA"> <path d="M226.9342782542782,124.55485657170976 226.0201722443411,118.9526999276506 226.01988983764863,118.95098198847542 226.6512190111679,118.70528090451405 227.7014516047806,117.91214941716267 227.7592206028187,118.05959396254718 228.0457363528692,119.71988283227063 231.84918652444878,119.03134029875882 235.39132503482728,118.33010185824251 238.68553140287355,117.63418140314445 239.3270372689433,118.03466704175443 239.68240812627275,118.26782433007097 239.69923695476464,118.64435498711697 239.96370539610294,119.08794024773599 240.43026798670334,119.22239843677568 240.87680022322917,119.36611556192874 240.61140593589403,119.57843147362979 240.35068524677186,120.41137921799388 240.02365190002035,120.78836142499598 240.25071367968854,121.18764913186753 240.0527886044173,121.65441307704924 240.1589095969628,122.1868527016127 240.44963577000527,122.2300370018823 240.57076144152387,122.56895411755006 241.5424847574444,123.24518225395902 241.30467121040618,123.6762848186841 240.81288759186558,124.2444275641007 240.67939440819498,124.49018160954527 240.23529264493757,124.9050072935324 239.6600546179346,124.85174221545262 239.46766337525492,125.04896786944886 239.3320861966277,125.35062334682713 237.12878978267238,125.82494351182515 234.98011192003327,126.24162905470355 233.19950912565145,126.60000870066057 232.40303375717806,126.7547132982096 230.06591373385245,127.17332307284526 227.43806483267878,127.62003233010226 226.9342782542782,124.55485657170976Z"></path> </svg>