<svg xmlns="http://www.w3.org/2000/svg" viewBox="222.5,143.2,13.5,10.2" width="48px" height="48px" data-name="South Carolina" data-fips="45" data-abbrev="SC"> <path d="M230.67405005468714,153.35242328651918 230.16755127114058,153.2588446576316 229.89223159834745,153.17646670506684 229.79691499467677,152.54382430019737 229.42506378365354,151.9652746773001 228.85053744455917,151.68227923907955 228.9082118773776,151.42318024718057 228.68698342846292,151.0812935604945 228.37214490953065,150.35219970866024 227.38745865067486,149.81599593207193 226.9481165083943,149.0717055654679 226.21625236341757,148.62538398011685 225.96696545584064,148.23878187681774 224.89954848335935,147.58598764579625 224.49061749349173,147.04086362154246 223.83558757515885,146.05606688862443 223.33571851794787,145.91797631820066 222.52764609066685,145.46233844849021 222.8767966878966,144.77099212986272 223.13528137734028,144.4531698768381 223.3918780167986,144.31707655869195 224.76718610245908,143.53975131301493 227.25380558214218,143.19890039370705 228.53717528975653,143.15563181244042 228.60528600698876,143.44646575547335 228.84073266725954,143.183150247123 229.3529625187878,143.67904720605534 229.40834472371793,144.0675342324913 232.40885019508855,143.59937902013084 236.00100561296006,146.1923818252866 234.84123163302178,147.66187471223893 234.6486058179615,148.84332435243567 231.9866056212453,151.51700299339365 230.67405005468714,153.35242328651918Z"></path> </svg>