<svg xmlns="http://www.w3.org/2000/svg" viewBox="203.7,138.6,22.5,7.7" width="48px" height="48px" data-name="Tennessee" data-fips="47" data-abbrev="TN"> <path d="M203.6581727527979,146.23150073347134 203.94989141875777,145.8991242025906 203.85641107871513,144.92165656086453 204.25679736618136,144.45317800379328 204.32565613246325,143.8889423059771 204.77650818756166,143.53067408103004 205.01851543759466,143.0387307008405 205.0283146988349,142.75717883149662 205.18167561875967,141.92188229850774 205.31180635495636,141.4315592436342 205.3586836230387,141.10074572705466 209.1703487491244,140.8411975175424 209.11767883455926,140.31324545374204 209.6447164698284,140.26144888704377 209.7437608474654,140.40717922893785 211.39843183411844,140.16429676421677 212.8314864617439,140.04524362086042 214.3885065374855,139.9141760492751 215.9213904371909,139.8442829868363 216.68069687706125,139.71770028472693 219.03455238966825,139.58445793835875 220.81403007326506,139.2471358094331 221.5536505241689,138.956684522802 221.6886124269434,138.88357653809547 221.55365314319104,138.95668636081479 220.8140323930897,139.24713557450872 224.76393777603343,138.81586260704373 225.06944876223582,138.75560369628167 226.09359199645465,138.55075559633573 226.08995534166064,138.97946030694223 226.1916517065905,139.4516874246812 225.67327689462815,139.67780339479683 225.34753974224074,140.29857681623184 224.8792488752122,140.30057832080365 223.9861830042365,141.07136794944685 223.72875983113312,140.8084562160183 223.12159558774184,141.35484418584736 223.16929747554403,141.59516819028656 222.69649784731817,141.93221720545458 222.47169878554914,142.26359620104355 221.89731211624388,142.63427438247305 221.28676405522884,142.87123112118599 220.7536235732174,143.03017554858243 220.4238539129489,143.48430073099806 220.28246678564147,143.86724700282505 219.7376730046625,144.14924934766563 219.76516231764205,144.8648941049568 218.32463175121424,145.07284857342938 216.23142449191405,145.2803633864534 212.74232236937638,145.59411105120958 209.32679779922196,145.89719644721677 206.3387174045584,146.05339677073044 203.6581727527979,146.23150073347134Z"></path> </svg>