<svg xmlns="http://www.w3.org/2000/svg" viewBox="220.8,127.7,20.8,11.6" width="48px" height="48px" data-name="Virginia" data-fips="51" data-abbrev="VA"> <path d="M221.6886124269434,138.88357653809547 222.0699509122052,138.67639391115253 222.23941430267067,138.3601468892821 222.26167876274943,138.31851736229513 222.3000443943505,138.28994476316026 222.92771354005927,137.8207382209124 223.15821958051055,137.42939925825104 223.1840372808788,137.1497639940427 223.1840380526442,137.14976348277955 223.1840386519787,137.14975697323987 223.9472553378308,136.64200690089135 224.61682168187045,135.78906420219738 224.84738054897116,135.4934590178576 225.04792147292403,136.0434663841358 225.31746144174605,136.24804131957416 225.3879792044991,136.30146136307653 225.82621016420498,136.50985739544984 226.38334750381583,136.1238007200398 226.58949300402287,135.98034716259352 226.5894946843394,135.980348054572 226.5894946856363,135.98034805366862 226.94020809749375,136.16612705426155 227.7204723364423,135.80298512881382 227.8709337898513,135.73257010298425 227.87622132269507,135.5446556106308 227.87954951965324,135.4253504235955 228.19401613101735,135.49579087721565 228.4617481137054,135.2160355836772 228.47717825988667,135.19988319448967 228.47717869993744,135.19988318060527 228.47717923240384,135.1998826231765 228.84764346240723,135.18790899760634 229.2182751361009,134.862002059309 229.22145075602285,134.68125627504165 229.22376568803705,134.54769193502784 229.11585819449215,134.1634918516061 229.11585855424158,134.16349095698342 229.1158582472241,134.16348986313125 229.37033616332468,133.52837868969834 229.7959543822185,133.0086916105109 229.83907161584008,132.49554846658302 230.02992069603945,132.12096726166493 230.17865210045318,131.82797216540115 230.2989513806856,131.0616412149335 230.29895157798987,131.06164131640455 230.29895278422728,131.06163358420218 230.68426339388924,131.25933072098144 231.10747185194344,131.4297319064805 231.45246305936385,131.23604144886966 231.52179183043597,130.91137930339684 231.69935266696626,130.45282955884042 231.82288485775965,130.12819054644817 231.89793703190293,129.93034997455314 231.89793828605264,129.9303506037949 231.89793958403936,129.93034717836395 232.1079997911008,130.0355999066302 232.4072380164375,129.5376567550947 232.65218325917516,129.22965243877016 232.8249730482691,129.01171941508787 232.8971832297697,128.90132235644975 233.07907279877955,128.62263313336902 233.10597536602378,127.89661312984381 233.11303904769213,127.7017461495426 233.1130395482694,127.7017463748229 233.11303983519693,127.70173842261028 234.44393461504532,128.29554451605455 234.5763543452288,128.3540633235974 234.73928217290137,127.67618530456946 234.81143107288563,127.68356373246802 235.131562418772,127.71602422541078 235.5163131198963,127.89881438042168 235.51631157562514,127.89881962570313 235.51631474378593,127.89882112718814 235.42580493236457,128.20562781583968 235.40041007893416,128.29149654016607 235.97488370502836,128.3852852199087 236.52117524633965,128.66046506749396 236.52117795522994,128.6604675087763 236.7892666067497,128.90172431622304 236.816498854147,129.09857187615145 236.81649887567886,129.0985725800209 236.82492716958407,129.37577758779597 236.74040362186213,129.46681000916237 236.45372702999975,129.77483190729225 236.31054595313984,130.57065904207627 236.6862018693926,130.68333557851764 237.07269449979884,130.45611318696692 237.26423152670478,130.79941590822312 237.31591218777632,130.8919187924993 239.30030476622827,131.59170831791047 240.07302301313254,134.71238712168662 240.86774609078788,134.78224783649856 241.38313263890453,135.8664818753691 241.38313162017639,135.86648210111582 241.38313136438825,135.86648133631587 241.05651823405023,135.93863295133363 238.57981710509006,136.47110226571758 235.81052463540507,137.0470778894574 230.56671211283464,137.9791793348255 226.09359364111234,138.5507471212248 225.06944876223582,138.75560369628167 224.76393777603343,138.81586260704373 220.8140323930897,139.24713557450872 221.55365314319104,138.95668636081479 221.6886124269434,138.88357653809547 M241.59954847835965,130.75992409366702 240.7242842209728,133.70946411207134 240.46056862891226,133.62881194223098 240.773708197759,131.2111957822416 240.77370886386885,131.21119051141642 241.01600888585375,130.9408913562569 241.59955145992592,130.75991384829825 241.59954847835965,130.75992409366702Z"></path> </svg>