<svg xmlns="http://www.w3.org/2000/svg" viewBox="195.3,105.0,15.7,16.1" width="48px" height="48px" data-name="Wisconsin" data-fips="55" data-abbrev="WI"> <path d="M199.5571973596763,117.8058246780987 199.47418273090167,117.43042402024398 199.42743440562623,116.62240059277703 199.33585197167554,116.34918551649645 198.49900697992794,115.89085007568362 197.8688114035808,115.34080358034552 197.68477117318935,114.98771940926243 197.4069619683756,114.7717538650321 196.6158032859655,114.32505590881469 196.32939660181324,114.30557702786682 195.6120382254817,113.68590689244024 195.6587232428051,112.94570840583026 195.6303323802492,112.03803496156092 195.78096034633117,111.19041806200593 195.264970617762,110.58035996397543 195.5791422335933,109.95335827097699 196.0664760489096,109.61560587098306 196.62936266732402,109.22434659469182 196.70355796917184,109.22498583137997 196.60668712033032,107.353547708935 197.20699654720832,107.14352979723868 197.31326628157592,107.07897532051717 197.59211133721044,106.90436489527346 197.871687966094,106.72756080274675 198.15090741823923,106.5523203313975 198.42842900505522,106.3766371975999 198.88143783931045,106.03304906604724 199.33311624176676,105.69034598344165 199.78213758100426,105.34687970295833 200.23089240335474,105.00080546359439 200.63016928604569,104.99553918910696 201.02958135563983,104.99142986584017 201.42890397303182,104.98469724164518 201.8283660146495,104.97912101200293 201.71593309872978,105.27768954234791 201.6044494010174,105.5780168529781 201.49267718033084,105.87836943297711 201.37930377353732,106.17874012088296 201.2668339097185,106.47914598690824 201.15265578425183,106.77784474723055 201.03948854411613,107.07829799114549 200.95990633978315,107.28829230226772 200.92982060847345,107.3820033867037 200.96317153215733,107.40656555617691 201.10226091808602,107.32935310880977 201.1053425560865,107.33979778313763 201.47546354857454,107.42715102178191 201.6988158322326,108.01525142965778 203.770836228759,108.4758169327395 205.15763328497692,108.97562700559885 205.8162173981094,108.92885136689746 206.27323577525084,108.93422006620833 206.44704971847247,109.47214349521559 207.01735195655817,109.63723931341859 207.2643770573471,110.0869979846874 207.14492440487385,110.36758803511364 207.08461735298022,110.91884596669266 207.60451384948266,110.90392719135826 207.4771841970163,111.456075683242 207.82613912630325,111.82244897062498 207.82817300386935,111.81696533957988 208.2029358878735,111.92593375627635 208.2615967554032,111.5306364023658 208.6416731640555,111.13976021263149 208.89456601000197,110.56971966220185 209.30052610151407,110.53128329850253 209.6952040799337,110.49319993913727 210.42472964908404,110.85561225211687 210.96737389702918,111.1247708878771 210.6765920532371,111.46998057693003 210.39044203806057,111.80719113455149 210.03230762219306,112.50057825157185 209.8606146321122,113.37712017051393 209.70530547212135,114.16652399399936 209.51962404827412,115.0964332570966 209.46132182765493,115.78063334027166 209.39298173019233,116.57136015751644 209.4124759421925,116.86263187075056 209.46463884315543,117.68352486137054 209.65764256171266,118.66695827078203 209.81956535574787,119.49085559567915 210.00950906615824,120.45206906040575 208.90502933476418,120.54487850837828 208.12752050586303,120.60805601836543 208.12828490552235,120.61690011888973 206.2373625632502,120.74223014718004 203.67579993657424,120.92143384665243 201.16876559772254,121.07647374897435 200.90106673487983,120.57566028686655 200.08376885563507,120.29647347487894 199.8983420106606,119.77087998952759 199.78350496067029,119.47543022090083 199.73985634414208,118.76973107325185 199.9442186119126,118.50428777642723 199.6010359455288,117.98712036082964 199.5571973596763,117.8058246780987Z"></path> </svg>